<svg version="1.1" id="Layer_1" xmlns="http://www.w3.org/2000/svg" xmlns:xlink="http://www.w3.org/1999/xlink" x="0px" y="0px"
	 width="100%" viewBox="0 0 225 225" enable-background="new 0 0 225 225" xml:space="preserve">
<path fill="#FDFFFE" opacity="1.000000" stroke="none" 
	d="
M147.000000,226.000000 
	C98.000000,226.000000 49.500008,226.000000 1.000006,226.000000 
	C1.000004,151.000000 1.000004,76.000015 1.000002,1.000017 
	C75.999992,1.000011 150.999985,1.000011 225.999969,1.000005 
	C225.999985,75.999985 225.999985,150.999969 226.000000,225.999969 
	C199.833328,226.000000 173.666672,226.000000 147.000000,226.000000 
M126.990997,218.738602 
	C149.912247,215.515015 169.931808,206.211517 186.974228,190.449310 
	C189.336411,188.264557 189.670944,186.543198 188.491852,183.646866 
	C180.604111,164.271469 166.597061,151.033813 147.894913,142.270966 
	C143.966675,140.430389 140.942078,140.185318 137.115402,143.078293 
	C126.985931,150.736160 114.799118,151.751785 102.950066,150.207275 
	C96.785767,149.403763 91.157936,144.632187 85.226646,141.780182 
	C83.901031,141.142776 82.051323,140.344910 80.895042,140.791504 
	C60.382915,148.714264 45.121452,162.300201 36.668167,182.875488 
	C36.106777,184.241882 36.702869,186.891403 37.757351,187.966171 
	C41.243179,191.519089 45.006992,194.861084 48.983517,197.860596 
	C71.866295,215.121201 97.783051,221.442261 126.990997,218.738602 
M69.479767,69.169601 
	C68.572472,76.179771 66.506149,83.269470 66.980682,90.184814 
	C68.273926,109.031052 81.436676,124.435104 99.329933,129.665710 
	C117.645279,135.019730 137.051285,128.671875 148.839767,113.470703 
	C160.005280,99.072845 161.501480,78.103706 151.787537,62.349308 
	C145.050323,51.422665 135.934998,43.958820 122.392471,41.499691 
	C113.382332,39.863590 104.968369,39.828026 96.629227,42.650455 
	C83.791054,46.995598 75.028099,55.994423 69.479767,69.169601 
z"/>
<path fill="#1AB7D2" opacity="1.000000" stroke="none" 
	d="
M126.543442,218.809265 
	C97.783051,221.442261 71.866295,215.121201 48.983517,197.860596 
	C45.006992,194.861084 41.243179,191.519089 37.757351,187.966171 
	C36.702869,186.891403 36.106777,184.241882 36.668167,182.875488 
	C45.121452,162.300201 60.382915,148.714264 80.895042,140.791504 
	C82.051323,140.344910 83.901031,141.142776 85.226646,141.780182 
	C91.157936,144.632187 96.785767,149.403763 102.950066,150.207275 
	C114.799118,151.751785 126.985931,150.736160 137.115402,143.078293 
	C140.942078,140.185318 143.966675,140.430389 147.894913,142.270966 
	C166.597061,151.033813 180.604111,164.271469 188.491852,183.646866 
	C189.670944,186.543198 189.336411,188.264557 186.974228,190.449310 
	C169.931808,206.211517 149.912247,215.515015 126.543442,218.809265 
z"/>
<path fill="#1AB7D2" opacity="1.000000" stroke="none" 
	d="
M69.635147,68.812416 
	C75.028099,55.994423 83.791054,46.995598 96.629227,42.650455 
	C104.968369,39.828026 113.382332,39.863590 122.392471,41.499691 
	C135.934998,43.958820 145.050323,51.422665 151.787537,62.349308 
	C161.501480,78.103706 160.005280,99.072845 148.839767,113.470703 
	C137.051285,128.671875 117.645279,135.019730 99.329933,129.665710 
	C81.436676,124.435104 68.273926,109.031052 66.980682,90.184814 
	C66.506149,83.269470 68.572472,76.179771 69.635147,68.812416 
z"/>
</svg>